HIERARCHY
ROOT Hips
{
	OFFSET 0.00000 0.00000 0.00000
	CHANNELS 6 Xposition Yposition Zposition Yrotation Zrotation Xrotation 
	JOINT Lumbar
	{
		OFFSET 0 0 0
		CHANNELS 3 Zrotation Xrotation Yrotation
		JOINT Neck
		{
			OFFSET 0.00 0.2701 0.00
			CHANNELS 3 Zrotation Xrotation Yrotation
			End Site
			{
				OFFSET 0.00 0.1379 0.00
			}
		}
		JOINT RightShoulder
		{
			OFFSET 0.0119 0.2289 0.1181
			CHANNELS 3 Zrotation Xrotation Yrotation
			JOINT RightElbow
			{
				OFFSET 0.00 -0.1475 0.00
				CHANNELS 2 Zrotation Yrotation
				JOINT RightWrist
				{
					OFFSET 0.00 -0.1605 0.00
					CHANNELS 2 Zrotation Xrotation
					End Site
					{
						OFFSET 0.0040 -0.1068 0.0006
					}
				}
			}
		}
		JOINT LeftShoulder
		{
			OFFSET 0.0119 0.2289 -0.1181
			CHANNELS 3 Zrotation Xrotation Yrotation
			JOINT LeftElbow
			{
				OFFSET 0.00 -0.1475 0.00
				CHANNELS 2 Zrotation Yrotation
				JOINT LeftWrist
				{
					OFFSET 0.00 -0.1605 0.00
					CHANNELS 2 Zrotation Xrotation
					End Site
					{
						OFFSET 0.0040 -0.1068 -0.0006
					}
				}
			}
		}
	}
	JOINT RightHip
	{
		OFFSET 0.0316 -0.0424 0.0458
		CHANNELS 3 Zrotation Xrotation Yrotation
		JOINT RightKnee
		{
			OFFSET 0.00 -0.2438 0.00
			CHANNELS 1 Zrotation
			JOINT RightAnkle
			{
				OFFSET 0.00 -0.2449 0.00
				CHANNELS 3 Zrotation Xrotation Yrotation
				End Site
				{
					OFFSET 0.1237 -0.0542 0.0051
				}
			}
		}
	}
	JOINT LeftHip
	{
		OFFSET 0.0316 -0.0424 -0.0458
		CHANNELS 3 Zrotation Xrotation Yrotation
		JOINT LeftKnee
		{
			OFFSET 0.00 -0.2438 0.00
			CHANNELS 1 Zrotation
			JOINT LeftAnkle
			{
				OFFSET 0.00 -0.2449 0.00
				CHANNELS 3 Zrotation Xrotation Yrotation
				End Site
				{
					OFFSET 0.1237 -0.0542 -0.0051
				}
			}
		}
	}
}
MOTION
Frames: 35
Frame Time: 0.02
0 0.57926 -0 205.7661 0 -3.59509 9.1258 4.04439 -1.75506 -18.62364 4.62553 -3.05962 15.87446 -13.85159 -3.81341 6.1024 79.2257 -1.67584 -0.2279 18.79947 6.17572 15.78087 5.62321 -75.54176 -4.43242 0.94256 -5.14088 8.81183 9.2294 -3.93986 1.31178 -3.73066 -4.79775 -4.11983 -1.17129 -8.58972 -6.10664 6.49674 6.00877 7.97628
-0.00045 0.57923 0.00018 205.76269 0 -3.58514 9.13885 4.04692 -1.7251 -18.8281 4.64427 -3.03576 15.1004 -13.88204 -6.31985 5.94696 78.83675 -1.78169 0.01157 17.57941 6.28572 20.47607 5.56406 -74.6445 -4.55721 0.97572 -5.21197 8.91817 12.49824 -3.96256 1.23342 -3.49271 -8.06102 -4.17409 -1.17711 -8.56236 -6.09248 6.52426 6.00884 7.96107
-0.0009 0.5792 0.00037 205.75938 0 -3.57528 9.15215 4.04952 -1.69538 -19.03263 4.66244 -3.01134 14.33071 -13.91171 -8.81106 5.79274 78.4505 -1.88672 0.24983 16.36631 6.39483 25.17782 5.50536 -73.76131 -4.68157 1.00933 -5.28255 9.02346 15.7345 -3.98517 1.15545 -3.25956 -11.29185 -4.2281 -1.18288 -8.53519 -6.07844 6.5517 6.00893 7.94591
-0.00134 0.57918 0.00055 205.75582 0 -3.56576 9.16626 4.05251 -1.66621 -19.23872 4.67887 -2.98402 13.56902 -13.93914 -11.26802 5.64194 78.07131 -1.98964 0.48554 15.16782 6.50101 29.96911 5.44797 -72.93089 -4.80496 1.04529 -5.35169 9.12536 18.8648 -4.00766 1.07787 -3.04654 -14.41685 -4.28167 -1.18847 -8.50807 -6.06478 6.57907 6.00913 7.93095
-0.0018 0.57915 0.00073 205.75286 0 -3.55451 9.17573 4.05354 -1.63397 -19.43569 4.70495 -2.97153 12.76259 -13.97917 -13.90919 5.47311 77.6548 -2.10389 0.73472 13.89031 6.62213 34.3074 5.38372 -71.82723 -4.93294 1.06911 -5.42835 9.24497 22.54754 -4.03079 0.9977 -2.73074 -18.09307 -4.33759 -1.19495 -8.48014 -6.04912 6.60679 6.00879 7.91512
-0.00223 0.57912 0.00091 205.74913 0 -3.54689 9.19524 4.05866 -1.60835 -19.65234 4.71032 -2.92802 12.05321 -13.99199 -16.15619 5.3425 77.3176 -2.19398 0.95518 12.78232 6.71193 39.5849 5.334 -71.29828 -5.05145 1.11837 -5.48912 9.32718 25.06419 -4.05257 0.92345 -2.63001 -20.60612 -4.38846 -1.19956 -8.45432 -6.03772 6.63372 6.00956 7.90102
-0.00257 0.57911 0.0011 205.73902 0 -3.5497 9.24192 4.07602 -1.60019 -19.92659 4.65895 -2.7916 11.58876 -13.93151 -17.35156 5.31832 77.19861 -2.21806 1.09929 12.12047 6.71122 47.82036 5.32477 -72.43695 -5.14277 1.24334 -5.50528 9.30274 24.25696 -4.07078 0.86121 -3.16495 -19.8008 -4.42652 -1.19878 -8.43076 -6.03813 6.65938 6.01379 7.89254
-0.00288 0.5791 0.00128 205.72891 0 -3.5561 9.29891 4.09736 -1.59887 -20.22041 4.58654 -2.62502 11.22647 -13.84319 -18.14225 5.33255 77.1598 -2.21758 1.21385 11.63372 6.67955 56.944 5.33014 -74.14228 -5.22465 1.39292 -5.50552 9.24105 22.28817 -4.08762 0.80579 -3.91009 -17.83733 -4.4593 -1.19614 -8.40999 -6.04283 6.68409 6.01907 7.88567
-0.0032 0.57909 0.00147 205.72156 0 -3.56058 9.35155 4.1163 -1.59493 -20.5035 4.52342 -2.47677 10.83127 -13.76627 -19.09718 5.32854 77.08459 -2.22797 1.34047 11.07957 6.66471 65.43756 5.32859 -75.53743 -5.31182 1.52813 -5.51359 9.19865 20.92031 -4.10503 0.74985 -4.53236 -16.47483 -4.49382 -1.19447 -8.39017 -6.04555 6.70869 6.02364 7.87746
-0.00354 0.57908 0.00166 205.70256 0 -3.56625 9.40264 4.13774 -1.58887 -20.79429 4.4615 -2.30906 10.3772 -13.69447 -20.14018 5.32773 77.00889 -2.23982 1.47366 10.47157 6.63847 74.89466 5.32824 -77.15468 -5.39542 1.67764 -5.51928 9.1466 19.25444 -4.12269 0.68256 -5.26926 -14.8075 -4.53121 -1.19229 -8.36083 -6.04841 6.73562 6.02922 7.87169
-0.00382 0.57907 0.00184 205.70784 0 -3.5703 9.45956 4.15491 -1.58894 -21.0737 4.39203 -2.17469 10.0724 -13.60562 -20.89701 5.32952 76.95372 -2.2425 1.58512 10.02058 6.6283 82.54466 5.32888 -78.444 -5.4834 1.80213 -5.52597 9.10537 17.92041 -4.13943 0.64113 -5.81826 -13.48715 -4.56127 -1.1907 -8.35219 -6.05197 6.75741 6.03291 7.86138
-0.00397 0.57907 0.00198 205.78001 0 -3.56892 9.52887 4.15939 -1.60337 -21.31684 4.30699 -2.14012 10.13399 -13.47433 -21.01916 5.32831 76.93112 -2.2285 1.65251 9.93217 6.673 85.07968 5.32847 -78.68831 -5.5928 1.86092 -5.54085 9.10712 17.90334 -4.15468 0.66374 -5.78942 -13.52374 -4.57306 -1.19129 -8.39835 -6.05663 6.76575 6.03129 7.83694
-0.00406 0.57906 0.00211 205.87664 0 -3.56579 9.60389 4.15942 -1.62388 -21.54768 4.215 -2.14018 10.34621 -13.3272 -20.85611 5.32878 76.92705 -2.20562 1.69739 10.00122 6.73449 85.74342 5.3286 -78.58292 -5.70566 1.8919 -5.55702 9.12044 18.24219 -4.16894 0.71284 -5.56589 -13.93156 -4.5775 -1.19251 -8.46558 -6.06182 6.76884 6.0277 7.80811
-0.00418 0.57905 0.00224 205.96219 0 -3.56351 9.67712 4.16141 -1.64219 -21.78447 4.12614 -2.12407 10.50304 -13.18882 -20.78746 5.32873 76.91775 -2.18504 1.74692 10.01628 6.78625 87.21 5.3286 -78.63862 -5.81232 1.92947 -5.5716 9.12567 18.33712 -4.18318 0.75396 -5.43615 -14.08909 -4.58493 -1.19336 -8.52427 -6.0666 6.77401 6.0249 7.78207
-0.00431 0.57904 0.00238 206.04761 0 -3.56112 9.74741 4.16376 -1.65841 -22.02122 4.0368 -2.10839 10.60803 -13.04311 -20.85607 5.32806 76.89868 -2.17089 1.81915 9.96222 6.84539 88.92906 5.32856 -78.70623 -5.93805 1.99355 -5.58983 9.14098 18.72354 -4.1993 0.77961 -5.29033 -14.53572 -4.5938 -1.1945 -8.57866 -6.07219 6.78053 6.02257 7.75271
-0.00439 0.57903 0.0025 206.13907 0 -3.55852 9.82491 4.1643 -1.68028 -22.25388 3.9469 -2.10087 10.85573 -12.90903 -20.57288 5.32978 76.90217 -2.14161 1.83892 10.08856 6.89407 89.64035 5.32863 -78.65698 -6.02518 1.99537 -5.60099 9.13924 18.62116 -4.21132 0.8419 -5.13027 -14.50214 -4.59782 -1.19521 -8.64701 -6.07624 6.78291 6.01879 7.72926
-0.00437 0.57902 0.00256 206.24143 0 -3.55563 9.92203 4.16066 -1.71677 -22.48568 3.85863 -2.10387 11.45702 -12.8128 -19.42008 5.32717 76.97367 -2.07262 1.72116 10.66224 6.90574 88.2417 5.32848 -78.38278 -6.00332 1.83346 -5.59228 9.08169 16.9241 -4.2119 1.01444 -4.96672 -12.89366 -4.59189 -1.19461 -8.74824 -6.07489 6.77573 6.01134 7.72252
-0.0043 0.57902 0.00259 206.34891 0 -3.55261 10.02583 4.15543 -1.75865 -22.71161 3.76965 -2.11477 12.19635 -12.72839 -17.91985 5.32864 77.06552 -1.98894 1.55122 11.41317 6.90745 85.84825 5.32873 -77.99867 -5.94272 1.60986 -5.57644 9.00777 14.75598 -4.20844 1.22016 -4.79656 -10.82216 -4.58107 -1.19355 -8.86277 -6.07206 6.76442 6.0025 7.72196
-0.00424 0.57901 0.00263 206.45401 0 -3.54976 10.12594 4.15107 -1.79766 -22.93608 3.68041 -2.12444 12.87499 -12.63775 -16.55883 5.33502 77.14018 -1.9121 1.40411 12.09046 6.91619 83.76541 5.32856 -77.65309 -5.90103 1.41302 -5.56402 8.94551 12.91571 -4.20705 1.40025 -4.63631 -9.07505 -4.57145 -1.19271 -8.97166 -6.07061 6.75471 5.99442 7.7191
-0.00421 0.579 0.00268 206.56053 0 -3.54643 10.22952 4.14584 -1.83849 -23.18032 3.59428 -2.12509 13.55248 -12.55109 -15.26354 5.31312 77.24664 -1.83396 1.25985 12.74531 6.91394 82.21738 5.32811 -77.34082 -5.85436 1.21905 -5.55111 8.86619 10.61579 -4.20464 1.62513 -4.4409 -6.86841 -4.56586 -1.19189 -9.08001 -6.06647 6.74622 5.98586 7.71416
-0.00411 0.579 0.00269 206.66459 0 -3.54403 10.32674 4.1422 -1.87693 -23.37868 3.50047 -2.14626 14.26047 -12.45802 -13.75627 5.35081 77.29449 -1.75549 1.09767 13.4855 6.93326 79.3407 5.32995 -76.94141 -5.8083 1.00677 -5.53724 8.81791 9.14558 -4.20343 1.76513 -4.31885 -5.49247 -4.55086 -1.19086 -9.19185 -6.06722 6.73399 5.97785 7.7148
-0.00386 0.57901 0.00263 206.76402 0 -3.54459 10.41001 4.14236 -1.90573 -23.48119 3.39517 -2.21946 15.04098 -12.35409 -11.71966 5.55402 77.14877 -1.67703 0.89803 14.42883 7.00377 73.07061 5.32655 -76.29753 -5.77831 0.74289 -5.52476 8.86329 10.17781 -4.20642 1.65506 -4.40825 -6.62382 -4.51059 -1.18975 -9.31435 -6.08489 6.71476 5.9729 7.73172
-0.00354 0.57902 0.00253 206.86012 0 -3.546 10.48545 4.14436 -1.93219 -23.53214 3.28041 -2.31339 15.84233 -12.2415 -9.48906 5.8166 76.94796 -1.5993 0.68245 15.44875 7.0983 65.50331 5.32919 -75.57835 -5.74976 0.46624 -5.51109 8.93967 12.04068 -4.21074 1.45978 -4.57109 -8.58582 -4.46108 -1.18838 -9.43905 -6.10696 6.69145 5.9683 7.75358
-0.00325 0.57903 0.00244 206.95527 0 -3.5468 10.56123 4.1462 -1.96087 -23.58763 3.16373 -2.39943 16.61919 -12.12667 -7.36726 6.05075 76.7902 -1.52299 0.47473 16.42614 7.18884 58.51539 5.33454 -74.91402 -5.71673 0.20565 -5.4965 8.99927 13.45987 -4.21457 1.30826 -4.69683 -10.10123 -4.41622 -1.1869 -9.55977 -6.12503 6.66855 5.96279 7.7717
-0.00297 0.57904 0.00237 207.06066 0 -3.54859 10.65158 4.14515 -1.98501 -23.72325 3.07323 -2.47929 17.46525 -12.0386 -5.14424 6.29145 76.55833 -1.4387 0.26245 17.44387 7.24973 51.52517 5.31024 -74.1537 -5.69671 -0.10197 -5.48798 9.06976 15.14642 -4.21794 1.13636 -4.83891 -11.89606 -4.36951 -1.1864 -9.69333 -6.15157 6.65175 5.96051 7.7965
-0.00264 0.57906 0.00225 207.14431 0 -3.54847 10.70869 4.15052 -2.01777 -23.67908 2.926 -2.57688 18.16919 -11.89223 -3.09274 6.53219 76.46596 -1.3715 0.05672 18.39164 7.3783 44.25645 5.35742 -73.58296 -5.65268 -0.31188 -5.46642 9.12502 16.47424 -4.22247 0.98663 -4.96328 -13.30757 -4.32423 -1.18376 -9.80076 -6.16146 6.62114 5.95147 7.80827
-0.00218 0.57912 0.00197 207.16469 0 -3.54338 10.68391 4.17382 -2.07671 -23.15842 2.62453 -2.71777 18.48513 -11.59004 -1.54595 6.76147 76.78525 -1.35046 -0.12799 19.14129 7.68741 36.44678 5.53396 -73.50564 -5.52361 -0.26485 -5.4111 9.13181 16.65686 -4.23124 0.91508 -5.032 -13.50027 -4.28762 -1.17568 -9.83323 -6.12494 6.55515 5.92485 7.78498
-0.00165 0.57919 0.00163 207.16391 0 -3.53622 10.62431 4.2034 -2.14392 -22.45827 2.26646 -2.87567 18.65556 -11.22898 -0.18345 6.98817 77.2443 -1.3468 -0.30511 19.81418 8.06416 28.42568 5.79761 -73.63262 -5.37449 -0.11539 -5.34239 9.1221 16.44468 -4.24085 0.86914 -5.07855 -13.2743 -4.25226 -1.16542 -9.83967 -6.07152 6.47509 5.89124 7.74812
-0.00114 0.57926 0.00131 207.17559 0 -3.52968 10.5755 4.22966 -2.20629 -21.83422 1.93401 -3.0264 18.88474 -10.89259 1.25106 7.21407 77.6308 -1.33581 -0.48484 20.51252 8.40999 20.56244 6.06129 -73.69687 -5.24611 -0.00243 -5.27859 9.11922 16.38165 -4.24929 0.81414 -5.1277 -13.21226 -4.21484 -1.15584 -9.8595 -6.02527 6.40034 5.86003 7.71589
-0.00069 0.57933 0.00104 207.17562 0 -3.52461 10.54809 4.25793 -2.27366 -21.22731 1.6009 -3.17634 19.14292 -10.56407 2.74268 7.45032 78.05362 -1.32249 -0.66878 21.25439 8.75645 12.38353 6.14579 -73.62615 -5.06647 0.06626 -5.2197 9.1201 16.46841 -4.26136 0.74615 -5.21009 -13.28397 -4.18372 -1.1474 -9.87293 -5.98084 6.33002 5.83198 7.68981
-0.00011 0.5794 0.00065 207.19435 0 -3.51589 10.46742 4.28351 -2.33199 -20.54795 1.25678 -3.33065 19.30959 -10.2061 4.06833 7.66369 78.43462 -1.31808 -0.84184 21.88521 9.11858 4.84013 6.63931 -73.8925 -4.99157 0.25339 -5.14743 9.10897 16.14704 -4.2657 0.71132 -5.21812 -12.97459 -4.13948 -1.13629 -9.89334 -5.92915 6.24717 5.79585 7.6483
0.00079 0.57947 0 207.27479 0 -3.49826 10.25255 4.29986 -2.36855 -19.66954 0.88816 -3.50162 19.22764 -9.77416 4.98535 7.81365 78.66674 -1.33452 -0.98707 22.23663 9.49861 -0.98297 8.11408 -74.97872 -5.18373 0.72642 -5.04114 9.06756 14.7196 -4.25173 0.7715 -5.01655 -11.6455 -4.06231 -1.11651 -9.94071 -5.85674 6.13334 5.73759 7.56167
0.0018 0.57955 -0.00075 207.37383 0 -3.47692 9.98439 4.31338 -2.39477 -18.73368 0.51199 -3.67468 19.06509 -9.31601 5.74007 7.94053 78.8521 -1.35925 -1.1214 22.47666 9.89483 -6.13576 10.02295 -76.40423 -5.48455 1.31706 -4.92184 9.01471 12.90497 -4.22944 0.86274 -4.74234 -9.956 -3.9712 -1.09445 -9.99579 -5.77861 6.00737 5.67174 7.46105
0.00277 0.57963 -0.00146 207.4612 0 -3.45677 9.73798 4.32825 -2.42227 -17.85128 0.14452 -3.84087 18.95905 -8.87451 6.5648 8.07828 79.05861 -1.37981 -1.26049 22.76208 10.28771 -11.53302 11.81396 -77.72067 -5.75652 1.86594 -4.80885 8.9677 11.31315 -4.20871 0.93387 -4.50743 -8.47345 -3.88428 -1.07468 -10.04641 -5.70605 5.88684 5.61037 7.3706
0.00371 0.57971 -0.00215 207.56159 0 -3.43851 9.50125 4.3428 -2.46444 -16.84304 -0.2473 -4.03251 18.76103 -8.41085 7.39814 8.21441 79.27033 -1.40257 -1.4004 23.06813 10.66093 -17.19525 13.26527 -78.87277 -5.9513 2.37369 -4.69405 8.9174 9.51059 -4.19698 1.0313 -4.24537 -6.79555 -3.80681 -1.04965 -10.09995 -5.61981 5.76609 5.54437 7.26352
